<?xml version="1.0" encoding="utf-8"?>
<!-- Generator: Adobe Illustrator 28.2.0, SVG Export Plug-In . SVG Version: 6.00 Build 0)  -->
<svg version="1.1" id="Vrstva_1" xmlns="http://www.w3.org/2000/svg" xmlns:xlink="http://www.w3.org/1999/xlink" x="0px" y="0px"
	 viewBox="0 0 500 350" style="enable-background:new 0 0 500 350;" xml:space="preserve">
<style type="text/css">
	.st0{fill:none;stroke:#00ACCC;stroke-width:13;stroke-linejoin:round;stroke-miterlimit:10;}
	.st1{fill:#020309;}
</style>
<path class="st0" d="M46.7,81.6c0.3,0.7,0.3,1,0.3,1s0,0,0,0.3c0,0.3-0.7,2.7-0.7,2.7L44.6,91c0,0.3,0,0,0,0.3c-0.3,0-10.4,7-10.4,7
	l-1,0.7l1,2.4c0,0,0.7,2,1,2.7c0.3,0.7,1.7,3.8,5.3,4.9c3.8,1.4,4.1,1.7,4.3,1.7l4.1,1.7c0,0,3.1,1.4,3.4,1.7c0.3,0.3,0.7,0.3,1.4,1
	c0.7,0.7,0.7,2,0.7,2s-0.3,2-0.3,2.7c0,0.7-0.7,2.7-1.7,4.1c-1,1.4-0.7,1.4-0.7,1.4s-1.4,2.7-2.4,3.4c-1,0.7-0.7,1-2,2
	c-1.4,1-0.7,0.3-1.4,1c-0.7,0.7-1.7,2.7-1.7,3.4s0,1-0.3,1.4s-8,6.3-8,6.3s-4.6,3.1-6,3.4c-3.8,1.4-4.9,2.4-4.9,2.4
	s-2.7,0.7-3.8,4.3c0,0.3-0.7,3.4-0.7,4.6l3.1-2.4c0,0,3.1-2,3.8-2c0,0,1.7-0.7,3.1-0.3c1.4,0.3,2,0.7,2,0.7s1.4,1,2.7,3.1
	c0,0,3.4,5.6,4.6,6.3c0.7,0.3,2.7,3.1,2.7,3.8c0,0.3,0.7,1.4,0.7,4.1c0,0,0.3,4.1,0.3,4.3c0,0-0.3,4.9-1.4,6l-0.7,2l-0.7,2
	c0,0-1.4,2-1.7,2.4c0,0-0.7,0.7-1.7,1c-0.7,0-2.4,1.4-2.4,1.4s-2.4,1.7-3.1,4.1s-0.7,2.4-0.7,2.4v1c0,0-0.3,2.4-0.7,3.1
	c-0.3,0.7-0.7,1.7-3.1,1.4c-2.4-0.3-3.8-0.7-3.8-0.7l-8.4-1.7c0,0-3.4-1-5.6,0c0,0-2.4,0.7-2.7,1.4c-0.7,0.7-1,0.7-2.4,1.7v0.7
	l3.1,1.7c0,0,3.8,2.4,4.3,4.1c0,0,2.4,3.1,3.1,3.4s5.6,4.9,5.6,6l0.7,1.4l-4.3,4.3l8.4,6.7c0,0,3.1,2.4,3.1,3.1c0.3,0.7,6,3.4,6,3.4
	l9.7,4.6l1,0.7c0,0,2.4,1,1.4,2.7c-1,1.7-2,3.1-2,3.1l-2.7,3.8l-3.1,4.1l-3.4,5.3c0,0-3.1,4.9,1.4,7.3c0,0,4.3,3.4,3.8,8
	c-0.7,4.3,0,5.6,0,5.6s0.3,4.3,6.7,7.3c0,0,5.3,5.3,4.3,7.7c-1,2,0,4.6,0,4.6s1.4,3.1,3.1,4.6c0,0,2.7,4.3-1.4,8c0,0-2,1.7-2.7,3.1
	l-2,3.4l0.7,1l13-1c0,0,8-1.7,12.1,7.7l6.7,11.4c0,0,3.1,6.3,6.7,1c0,0,6-15.4,6-16.7c0-1.4,6-12.1,9-14.7
	c3.1-2.7,11.4-11.4,11.4-11.4s7-8.7,7.7-10.1c0.7-1.4,6.3-8.7,6.3-8.7s8.7-9.4,4.1-18.1c-4.6-8.7-4.3-10.7-4.3-10.7s0-5.6,7.3-7.3
	l6.7,4.6c0,0,4.6,9.7,13,1c0,0,3.4-10.7,16.7-11.4c0,0,4.6,2,8-4.3l0.7-1.7c0,0-0.3-5.6,4.3-4.6c4.6,1,7.7,2,7.7,2s5.3-1.4,4.6,6
	c-0.7,7-0.7,11.8-0.7,11.8s-0.3,4.9,7,7.7l-4.6,3.4c0,0,6.7,5.3,16.7,1c0,0,5.3-4.1,9-3.4c3.4,0.7,14.7,1,14.7,1s12.1,2.7,16.4-3.1
	c4.3-5.6,16-22,16-22s4.3-4.9,10.7-5.3c0,0,2.7-0.3,4.1-2c0,0,7.3-3.4,12.8-2c5.3,1.4,8.4,0.7,8.4,0.7s9.7-0.7,10.4,6
	c0,0,0.3,1.4,2,1.4l3.1,1.4l1.4-3.1c0,0-0.7-5.3,4.3-3.1l6.3,3.8c0,0,5.3,2.4,10.7,0.7l28.5-5.3c0,0,4.6-1,7.7,2
	c3.1,3.1,9.7,4.9,9.7,4.9s7.7,3.1,16.7-1.4l3.8-0.7c0,0,12.1-1.7,19.4,8.4s8.4,8.4,9,17.1l-0.3,0.3l-0.3,0.3h12.1c0,0,5.3,1,5.3-4.3
	s0.3-7,0.3-7l3.1-4.9c0,0,2.4-2.4-0.3-7.7l9.7,4.1c0,0,7.7,4.1,10.7-3.4c3.1-7.5,7-15.4,7-15.4s12.8-11.8,6.3-21.7
	c0,0,0-1.7-13.3-11.8l-6-4.9c0,0-4.9-3.1-6.3-3.1c-1.4,0-7-4.1-7.7-5.6c-0.7-1.7-14-13.3-14-13.3s-7.7-8-14.7-9.4l-14-4.1
	c0,0-6.7-2-10.7,1.4l-2.7,1.4c0,0-3.8,1.7-8-0.3c0,0-3.8-2-4.1-2.7c-0.7-0.7-1.7-1-1.7-1s-1.4-0.3-2,0.7c0,0-0.3,0.3-1,1.4
	c-0.7,1-2.7,1.7-5.3,1l-7.7-1.4l-4.1-1c0,0-4.9-2-7-3.8c0,0-0.3-0.3-1.4-0.3l-12.1-6.3c0,0-3.1-1.4-5.3,0l4.1,3.1l-1.7,0.3
	c0,0-0.7,0-1.7,0s-16,0-16,0s-5.6,0.3-4.9-6c0,0,1.7-5.3,1-9.7c-0.7-4.1,4.6-2.4,4.6-2.4l9.4,1.7l2,0.3c0,0,4.1,1.4,5.3,1.7
	c1.4,0.3,6,0.7,6,0.7s4.1,0.7,7,0c3.1-0.7,11.1,1,11.1,1s5.6,1.7,7.3-1.7c1.7-3.4,7.7-11.8,7.7-11.8l2-3.4c0,0-2.4-1.4-6.7,1.7
	c0,0-3.8,2-6-1.7c0,0,3.1-4.3,2.7-5.3c0,0,0-1.7-1-2.7c-1-1-11.8,4.9-11.8,4.9s-1.4,1-2,3.4c-0.7,2-6.7-1-6.7-1s-7.7-4.1-18.8-4.1
	c0,0-2.7-0.3-4.3,2c0,0-3.4,2-8.7,2.4l-2,0.3c0,0-11.4,3.1-16.7-2.4l-2.7-2.7c0,0-2-2.7-3.4-4.1c-1.7-1.4-7-10.4-7.3-13
	c0,0-1-5.6-1.4-7.7c0,0-0.3-1-1-1.4c-0.7-0.3-2.4-3.4-2-7.3c0,0,1.4-6-1.4-9c-2.7-3.1-11.8-10.4-23.7-1l-2.7,2c0,0-10.4,2-18.1-1.4
	c-7.7-3.4-16.7-10.7-20.1-18.1c-3.4-7.3-14.3-6.7-14.3-6.7s-2.7,4.6-6.7,4.1c0,0-14.3-2-15.4-3.1c-1-1-12.5-6-12.5-6s-7-4.1-8.7-7.7
	c0,0-0.3-2.4-6-2.7l-17.7-3.4c0,0-3.1-0.7-5.6,2c-2.7,2.7-4.6,3.8-4.6,3.8s-3.8,3.4-7.7,3.8c0,0-3.8,0-4.9-0.7
	c-1.4-0.7-5.3,1.4-5.3,1.4s-3.4,4.6-8,2.7l-1.4-0.3c0,0-1-1-2.4-0.7l-12.1-3.1l-6.7-2c0,0-10.1-4.6-19.4-1.4l-9.4,2.7
	c0,0-2,0.7-3.1,1.7L35.8,36.9c0,0,5.3,1.4,5.3,5.6s-0.3,4.9-0.3,4.9l-3.4,0.3v8c0,0,0,7,3.1,11.8L46.7,81.6z"/>
<g>
	<g>
		<path class="st1" d="M120.4,152.1v53.1h-11.9v-31.2l0.5-8.9l-2,10.2L98,200.9H86.3l-8.9-25.6l-2-10.2l0.5,8.9v31.2H63.9v-53.1
			h16.9l10.7,35.3l0.7,4.3l0.7-4.3l10.7-35.3H120.4z"/>
		<path class="st1" d="M147.2,152.1h11.9l21,53.1h-12.8l-3.9-10.6h-20.5l-3.9,10.6h-12.8L147.2,152.1z M147,184h12.5l-6.1-17.4h-0.2
			L147,184z"/>
		<path class="st1" d="M194.1,162.6h-12.6v-10.6h37.2v10.6H206v42.5h-11.9L194.1,162.6L194.1,162.6z"/>
		<path class="st1" d="M223.4,178.5c0-3.9,0.7-7.5,2-10.7c1.4-3.4,3.2-6.3,5.8-8.7c2.6-2.4,5.3-4.4,8.7-5.8c3.2-1.4,6.8-2,10.7-2
			s7.5,0.7,10.7,2c3.2,1.4,6.1,3.4,8.7,5.8s4.3,5.5,5.6,8.7c1.4,3.4,2,7,2,10.7c0,3.9-0.7,7.5-2,10.7c-1.4,3.2-3.2,6.3-5.6,8.7
			s-5.3,4.4-8.7,5.8c-3.2,1.4-7,2-10.9,2c-4.1,0-7.8-0.7-11.1-2c-3.2-1.4-6.1-3.4-8.5-5.8s-4.3-5.5-5.6-8.7
			C224.1,186,223.4,182.4,223.4,178.5z M235.9,178.5c0,3.1,0.7,5.8,1.9,8.2c1.2,2.4,2.9,4.4,5.1,5.8c2.2,1.4,4.8,2.2,7.7,2.2
			c2.9,0,5.5-0.7,7.7-2.2c2.2-1.4,3.9-3.4,5.1-5.8s1.9-5.1,1.9-8.2c0-3.1-0.7-5.8-1.9-8.2s-2.9-4.4-5.1-5.8
			c-2.2-1.5-4.8-2.2-7.7-2.2s-5.5,0.7-7.7,2.2c-2.2,1.5-3.9,3.4-5.1,5.8C236.5,172.7,235.9,175.6,235.9,178.5z"/>
		<path class="st1" d="M284.8,152.1h15.9c5.6,0,10.4,1.2,14,3.4c3.8,2.2,6.5,5.5,8.4,9.4s2.7,8.5,2.7,13.6s-0.9,9.7-2.7,13.6
			c-1.9,3.9-4.6,7.2-8.4,9.4c-3.8,2.2-8.4,3.4-14,3.4h-15.9V152.1z M296.8,162.8v31.7h2.9c3.1,0,5.5-0.7,7.5-2
			c2-1.4,3.4-3.2,4.4-5.6c1-2.4,1.5-5.1,1.5-8c0-3.1-0.5-5.8-1.5-8.2c-1-2.4-2.4-4.3-4.4-5.6c-2-1.4-4.6-2-7.5-2h-2.9V162.8z"/>
		<path class="st1" d="M331.2,178.5c0-3.9,0.7-7.5,2-10.7c1.4-3.4,3.2-6.3,5.8-8.7c2.6-2.4,5.3-4.4,8.7-5.8c3.2-1.4,6.8-2,10.7-2
			c3.9,0,7.5,0.7,10.7,2s6.1,3.4,8.7,5.8s4.3,5.5,5.6,8.7c1.4,3.4,2,7,2,10.7c0,3.9-0.7,7.5-2,10.7c-1.4,3.2-3.2,6.3-5.6,8.7
			s-5.3,4.4-8.7,5.8c-3.2,1.4-7,2-10.9,2c-4.1,0-7.8-0.7-11.1-2c-3.2-1.4-6.1-3.4-8.5-5.8s-4.3-5.5-5.6-8.7
			C331.9,186,331.2,182.4,331.2,178.5z M343.7,178.5c0,3.1,0.7,5.8,1.9,8.2c1.2,2.4,2.9,4.4,5.1,5.8c2.2,1.4,4.8,2.2,7.7,2.2
			s5.5-0.7,7.7-2.2c2.2-1.4,3.9-3.4,5.1-5.8c1.2-2.4,1.9-5.1,1.9-8.2c0-3.1-0.7-5.8-1.9-8.2c-1.2-2.4-2.9-4.4-5.1-5.8
			c-2.2-1.5-4.8-2.2-7.7-2.2s-5.5,0.7-7.7,2.2c-2.2,1.5-3.9,3.4-5.1,5.8C344.4,172.7,343.7,175.6,343.7,178.5z"/>
	</g>
</g>
</svg>
