<?xml version="1.0" encoding="utf-8"?>
<!-- Generator: Adobe Illustrator 28.2.0, SVG Export Plug-In . SVG Version: 6.00 Build 0)  -->
<svg version="1.1" id="Vrstva_1" xmlns="http://www.w3.org/2000/svg" xmlns:xlink="http://www.w3.org/1999/xlink" x="0px" y="0px"
	 viewBox="0 0 500 500" style="enable-background:new 0 0 500 500;" xml:space="preserve">
<style type="text/css">
	.st0{fill:none;stroke:#00ACCB;stroke-width:5;stroke-linejoin:round;stroke-miterlimit:10;}
	.st1{fill:#020203;}
</style>
<path class="st0" d="M135.1,203.4c0.2,0.4,0.2,0.6,0.2,0.6s0,0,0,0.2s-0.4,1.6-0.4,1.6l-1,3.1c0,0.2,0,0,0,0.2
	c-0.2,0-6.1,4.1-6.1,4.1l-0.6,0.4l0.6,1.4c0,0,0.4,1.2,0.6,1.6c0.2,0.4,1,2.2,3.1,2.9c2.2,0.8,2.4,1,2.5,1l2.4,1c0,0,1.8,0.8,2,1
	c0.2,0.2,0.4,0.2,0.8,0.6c0.4,0.4,0.4,1.2,0.4,1.2s-0.2,1.2-0.2,1.6c0,0.4-0.4,1.6-1,2.4c-0.6,0.8-0.4,0.8-0.4,0.8s-0.8,1.6-1.4,2
	c-0.6,0.4-0.4,0.6-1.2,1.2c-0.8,0.6-0.4,0.2-0.8,0.6c-0.4,0.4-1,1.6-1,2s0,0.6-0.2,0.8c-0.2,0.2-4.7,3.7-4.7,3.7s-2.7,1.8-3.5,2
	c-2.2,0.8-2.9,1.4-2.9,1.4s-1.6,0.4-2.2,2.5c0,0.2-0.4,2-0.4,2.7l1.8-1.4c0,0,1.8-1.2,2.2-1.2c0,0,1-0.4,1.8-0.2
	c0.8,0.2,1.2,0.4,1.2,0.4s0.8,0.6,1.6,1.8c0,0,2,3.3,2.7,3.7c0.4,0.2,1.6,1.8,1.6,2.2c0,0.2,0.4,0.8,0.4,2.4c0,0,0.2,2.4,0.2,2.5
	c0,0-0.2,2.9-0.8,3.5l-0.4,1.2l-0.4,1.2c0,0-0.8,1.2-1,1.4c0,0-0.4,0.4-1,0.6c-0.4,0-1.4,0.8-1.4,0.8s-1.4,1-1.8,2.4
	c-0.4,1.4-0.4,1.4-0.4,1.4v0.6c0,0-0.2,1.4-0.4,1.8c-0.2,0.4-0.4,1-1.8,0.8c-1.4-0.2-2.2-0.4-2.2-0.4l-4.9-1c0,0-2-0.6-3.3,0
	c0,0-1.4,0.4-1.6,0.8c-0.4,0.4-0.6,0.4-1.4,1v0.4l1.8,1c0,0,2.2,1.4,2.5,2.4c0,0,1.4,1.8,1.8,2s3.3,2.9,3.3,3.5l0.4,0.8l-2.5,2.5
	l4.9,3.9c0,0,1.8,1.4,1.8,1.8c0.2,0.4,3.5,2,3.5,2l5.7,2.7l0.6,0.4c0,0,1.4,0.6,0.8,1.6c-0.6,1-1.2,1.8-1.2,1.8l-1.6,2.2l-1.8,2.4
	l-2,3.1c0,0-1.8,2.9,0.8,4.3c0,0,2.5,2,2.2,4.7c-0.4,2.5,0,3.3,0,3.3s0.2,2.5,3.9,4.3c0,0,3.1,3.1,2.5,4.5c-0.6,1.2,0,2.7,0,2.7
	s0.8,1.8,1.8,2.7c0,0,1.6,2.5-0.8,4.7c0,0-1.2,1-1.6,1.8l-1.2,2l0.4,0.6l7.6-0.6c0,0,4.7-1,7.1,4.5l3.9,6.7c0,0,1.8,3.7,3.9,0.6
	c0,0,3.5-9,3.5-9.8c0-0.8,3.5-7.1,5.3-8.6c1.8-1.6,6.7-6.7,6.7-6.7s4.1-5.1,4.5-5.9c0.4-0.8,3.7-5.1,3.7-5.1s5.1-5.5,2.4-10.6
	c-2.7-5.1-2.5-6.3-2.5-6.3s0-3.3,4.3-4.3l3.9,2.7c0,0,2.7,5.7,7.6,0.6c0,0,2-6.3,9.8-6.7c0,0,2.7,1.2,4.7-2.5l0.4-1
	c0,0-0.2-3.3,2.5-2.7c2.7,0.6,4.5,1.2,4.5,1.2s3.1-0.8,2.7,3.5c-0.4,4.1-0.4,6.9-0.4,6.9s-0.2,2.9,4.1,4.5l-2.7,2
	c0,0,3.9,3.1,9.8,0.6c0,0,3.1-2.4,5.3-2c2,0.4,8.6,0.6,8.6,0.6s7.1,1.6,9.6-1.8c2.5-3.3,9.4-12.9,9.4-12.9s2.5-2.9,6.3-3.1
	c0,0,1.6-0.2,2.4-1.2c0,0,4.3-2,7.5-1.2c3.1,0.8,4.9,0.4,4.9,0.4s5.7-0.4,6.1,3.5c0,0,0.2,0.8,1.2,0.8l1.8,0.8l0.8-1.8
	c0,0-0.4-3.1,2.5-1.8l3.7,2.2c0,0,3.1,1.4,6.3,0.4l16.7-3.1c0,0,2.7-0.6,4.5,1.2c1.8,1.8,5.7,2.9,5.7,2.9s4.5,1.8,9.8-0.8l2.2-0.4
	c0,0,7.1-1,11.4,4.9s4.9,4.9,5.3,10l-0.2,0.2l-0.2,0.2h7.1c0,0,3.1,0.6,3.1-2.5c0-3.1,0.2-4.1,0.2-4.1l1.8-2.9c0,0,1.4-1.4-0.2-4.5
	l5.7,2.4c0,0,4.5,2.4,6.3-2s4.1-9,4.1-9s7.5-6.9,3.7-12.7c0,0,0-1-7.8-6.9l-3.5-2.9c0,0-2.9-1.8-3.7-1.8c-0.8,0-4.1-2.4-4.5-3.3
	c-0.4-1-8.2-7.8-8.2-7.8s-4.5-4.7-8.6-5.5l-8.2-2.4c0,0-3.9-1.2-6.3,0.8l-1.6,0.8c0,0-2.2,1-4.7-0.2c0,0-2.2-1.2-2.4-1.6
	c-0.4-0.4-1-0.6-1-0.6s-0.8-0.2-1.2,0.4c0,0-0.2,0.2-0.6,0.8c-0.4,0.6-1.6,1-3.1,0.6l-4.5-0.8l-2.4-0.6c0,0-2.9-1.2-4.1-2.2
	c0,0-0.2-0.2-0.8-0.2l-7.1-3.7c0,0-1.8-0.8-3.1,0l2.4,1.8l-1,0.2c0,0-0.4,0-1,0s-9.4,0-9.4,0s-3.3,0.2-2.9-3.5c0,0,1-3.1,0.6-5.7
	c-0.4-2.4,2.7-1.4,2.7-1.4l5.5,1l1.2,0.2c0,0,2.4,0.8,3.1,1c0.8,0.2,3.5,0.4,3.5,0.4s2.4,0.4,4.1,0c1.8-0.4,6.5,0.6,6.5,0.6
	s3.3,1,4.3-1c1-2,4.5-6.9,4.5-6.9l1.2-2c0,0-1.4-0.8-3.9,1c0,0-2.2,1.2-3.5-1c0,0,1.8-2.5,1.6-3.1c0,0,0-1-0.6-1.6
	c-0.6-0.6-6.9,2.9-6.9,2.9s-0.8,0.6-1.2,2c-0.4,1.2-3.9-0.6-3.9-0.6s-4.5-2.4-11-2.4c0,0-1.6-0.2-2.5,1.2c0,0-2,1.2-5.1,1.4
	l-1.2,0.2c0,0-6.7,1.8-9.8-1.4l-1.6-1.6c0,0-1.2-1.6-2-2.4c-1-0.8-4.1-6.1-4.3-7.6c0,0-0.6-3.3-0.8-4.5c0,0-0.2-0.6-0.6-0.8
	c-0.4-0.2-1.4-2-1.2-4.3c0,0,0.8-3.5-0.8-5.3c-1.6-1.8-6.9-6.1-13.9-0.6l-1.6,1.2c0,0-6.1,1.2-10.6-0.8s-9.8-6.3-11.8-10.6
	c-2-4.3-8.4-3.9-8.4-3.9s-1.6,2.7-3.9,2.4c0,0-8.4-1.2-9-1.8c-0.6-0.6-7.3-3.5-7.3-3.5s-4.1-2.4-5.1-4.5c0,0-0.2-1.4-3.5-1.6
	l-10.4-2c0,0-1.8-0.4-3.3,1.2c-1.6,1.6-2.7,2.2-2.7,2.2s-2.2,2-4.5,2.2c0,0-2.2,0-2.9-0.4c-0.8-0.4-3.1,0.8-3.1,0.8s-2,2.7-4.7,1.6
	l-0.8-0.2c0,0-0.6-0.6-1.4-0.4l-7.1-1.8l-3.9-1.2c0,0-5.9-2.7-11.4-0.8l-5.5,1.6c0,0-1.2,0.4-1.8,1l-8.4,7.3c0,0,3.1,0.8,3.1,3.3
	c0,2.5-0.2,2.9-0.2,2.9l-2,0.2v4.7c0,0,0,4.1,1.8,6.9L135.1,203.4z"/>
<g>
	<g>
		<path class="st1" d="M178.3,244.7v31.1h-7v-18.3l0.3-5.2l-1.2,6l-5.2,15h-6.9l-5.2-15l-1.2-6l0.3,5.2v18.3h-7v-31.1h9.9l6.3,20.7
			l0.4,2.5l0.4-2.5l6.3-20.7H178.3z"/>
		<path class="st1" d="M194,244.7h7l12.3,31.1h-7.5l-2.3-6.2h-12l-2.3,6.2h-7.5L194,244.7z M193.9,263.4h7.3l-3.6-10.2h-0.1
			L193.9,263.4z"/>
		<path class="st1" d="M221.5,250.9h-7.4v-6.2h21.8v6.2h-7.4v24.9h-7V250.9z"/>
		<path class="st1" d="M238.7,260.2c0-2.3,0.4-4.4,1.2-6.3c0.8-2,1.9-3.7,3.4-5.1s3.1-2.6,5.1-3.4c1.9-0.8,4-1.2,6.3-1.2
			c2.3,0,4.4,0.4,6.3,1.2c1.9,0.8,3.6,2,5.1,3.4s2.5,3.2,3.3,5.1c0.8,2,1.2,4.1,1.2,6.3c0,2.3-0.4,4.4-1.2,6.3s-1.9,3.7-3.3,5.1
			s-3.1,2.6-5.1,3.4c-1.9,0.8-4.1,1.2-6.4,1.2c-2.4,0-4.6-0.4-6.5-1.2s-3.6-2-5-3.4s-2.5-3.2-3.3-5.1
			C239.1,264.6,238.7,262.5,238.7,260.2z M246,260.2c0,1.8,0.4,3.4,1.1,4.8s1.7,2.6,3,3.4c1.3,0.8,2.8,1.3,4.5,1.3s3.2-0.4,4.5-1.3
			c1.3-0.8,2.3-2,3-3.4s1.1-3,1.1-4.8c0-1.8-0.4-3.4-1.1-4.8s-1.7-2.6-3-3.4c-1.3-0.9-2.8-1.3-4.5-1.3s-3.2,0.4-4.5,1.3
			c-1.3,0.9-2.3,2-3,3.4S246,258.5,246,260.2z"/>
		<path class="st1" d="M274.7,244.7h9.3c3.3,0,6.1,0.7,8.2,2c2.2,1.3,3.8,3.2,4.9,5.5c1.1,2.3,1.6,5,1.6,8c0,3-0.5,5.7-1.6,8
			c-1.1,2.3-2.7,4.2-4.9,5.5c-2.2,1.3-4.9,2-8.2,2h-9.3V244.7z M281.7,251v18.6h1.7c1.8,0,3.2-0.4,4.4-1.2c1.2-0.8,2-1.9,2.6-3.3
			s0.9-3,0.9-4.7c0-1.8-0.3-3.4-0.9-4.8c-0.6-1.4-1.4-2.5-2.6-3.3c-1.2-0.8-2.7-1.2-4.4-1.2H281.7z"/>
		<path class="st1" d="M301.9,260.2c0-2.3,0.4-4.4,1.2-6.3c0.8-2,1.9-3.7,3.4-5.1s3.1-2.6,5.1-3.4c1.9-0.8,4-1.2,6.3-1.2
			c2.3,0,4.4,0.4,6.3,1.2c1.9,0.8,3.6,2,5.1,3.4s2.5,3.2,3.3,5.1c0.8,2,1.2,4.1,1.2,6.3c0,2.3-0.4,4.4-1.2,6.3s-1.9,3.7-3.3,5.1
			s-3.1,2.6-5.1,3.4c-1.9,0.8-4.1,1.2-6.4,1.2c-2.4,0-4.6-0.4-6.5-1.2s-3.6-2-5-3.4s-2.5-3.2-3.3-5.1
			C302.3,264.6,301.9,262.5,301.9,260.2z M309.2,260.2c0,1.8,0.4,3.4,1.1,4.8s1.7,2.6,3,3.4c1.3,0.8,2.8,1.3,4.5,1.3
			s3.2-0.4,4.5-1.3c1.3-0.8,2.3-2,3-3.4s1.1-3,1.1-4.8c0-1.8-0.4-3.4-1.1-4.8s-1.7-2.6-3-3.4c-1.3-0.9-2.8-1.3-4.5-1.3
			s-3.2,0.4-4.5,1.3c-1.3,0.9-2.3,2-3,3.4S309.2,258.5,309.2,260.2z"/>
	</g>
</g>
</svg>
