<?xml version="1.0" encoding="utf-8"?>
<!-- Generator: Adobe Illustrator 28.2.0, SVG Export Plug-In . SVG Version: 6.00 Build 0)  -->
<svg version="1.1" id="Vrstva_1" xmlns="http://www.w3.org/2000/svg" xmlns:xlink="http://www.w3.org/1999/xlink" x="0px" y="0px"
	 viewBox="0 0 595.3 841.9" style="enable-background:new 0 0 595.3 841.9;" xml:space="preserve">
<style type="text/css">
	.st0{fill:none;stroke:#00ACCA;stroke-width:5;stroke-linejoin:round;stroke-miterlimit:10;}
</style>
<path class="st0" d="M237.2,397.6c0.1,0.2,0.1,0.3,0.1,0.3s0,0,0,0.1s-0.2,0.8-0.2,0.8l-0.5,1.6c0,0.1,0,0,0,0.1
	c-0.1,0-3.1,2.1-3.1,2.1l-0.3,0.2l0.3,0.7c0,0,0.2,0.6,0.3,0.8s0.5,1.1,1.6,1.5s1.2,0.5,1.3,0.5l1.2,0.5c0,0,0.9,0.4,1,0.5
	s0.2,0.1,0.4,0.3s0.2,0.6,0.2,0.6s-0.1,0.6-0.1,0.8s-0.2,0.8-0.5,1.2s-0.2,0.4-0.2,0.4s-0.4,0.8-0.7,1s-0.2,0.3-0.6,0.6
	s-0.2,0.1-0.4,0.3s-0.5,0.8-0.5,1s0,0.3-0.1,0.4s-2.4,1.9-2.4,1.9s-1.4,0.9-1.8,1c-1.1,0.4-1.5,0.7-1.5,0.7s-0.8,0.2-1.1,1.3
	c0,0.1-0.2,1-0.2,1.4l0.9-0.7c0,0,0.9-0.6,1.1-0.6c0,0,0.5-0.2,0.9-0.1s0.6,0.2,0.6,0.2s0.4,0.3,0.8,0.9c0,0,1,1.7,1.4,1.9
	c0.2,0.1,0.8,0.9,0.8,1.1c0,0.1,0.2,0.4,0.2,1.2c0,0,0.1,1.2,0.1,1.3c0,0-0.1,1.5-0.4,1.8l-0.2,0.6l-0.2,0.6c0,0-0.4,0.6-0.5,0.7
	c0,0-0.2,0.2-0.5,0.3c-0.2,0-0.7,0.4-0.7,0.4s-0.7,0.5-0.9,1.2s-0.2,0.7-0.2,0.7v0.3c0,0-0.1,0.7-0.2,0.9s-0.2,0.5-0.9,0.4
	s-1.1-0.2-1.1-0.2l-2.5-0.5c0,0-1-0.3-1.7,0c0,0-0.7,0.2-0.8,0.4c-0.2,0.2-0.3,0.2-0.7,0.5v0.2l0.9,0.5c0,0,1.1,0.7,1.3,1.2
	c0,0,0.7,0.9,0.9,1s1.7,1.5,1.7,1.8l0.2,0.4l-1.3,1.3l2.5,2c0,0,0.9,0.7,0.9,0.9c0.1,0.2,1.8,1,1.8,1l2.9,1.4l0.3,0.2
	c0,0,0.7,0.3,0.4,0.8s-0.6,0.9-0.6,0.9l-0.8,1.1l-0.9,1.2l-1,1.6c0,0-0.9,1.5,0.4,2.2c0,0,1.3,1,1.1,2.4c-0.2,1.3,0,1.7,0,1.7
	s0.1,1.3,2,2.2c0,0,1.6,1.6,1.3,2.3c-0.3,0.6,0,1.4,0,1.4s0.4,0.9,0.9,1.4c0,0,0.8,1.3-0.4,2.4c0,0-0.6,0.5-0.8,0.9l-0.6,1l0.2,0.3
	l3.9-0.3c0,0,2.4-0.5,3.6,2.3l2,3.4c0,0,0.9,1.9,2,0.3c0,0,1.8-4.6,1.8-5s1.8-3.6,2.7-4.4s3.4-3.4,3.4-3.4s2.1-2.6,2.3-3
	c0.2-0.4,1.9-2.6,1.9-2.6s2.6-2.8,1.2-5.4s-1.3-3.2-1.3-3.2s0-1.7,2.2-2.2l2,1.4c0,0,1.4,2.9,3.9,0.3c0,0,1-3.2,5-3.4
	c0,0,1.4,0.6,2.4-1.3l0.2-0.5c0,0-0.1-1.7,1.3-1.4s2.3,0.6,2.3,0.6s1.6-0.4,1.4,1.8c-0.2,2.1-0.2,3.5-0.2,3.5s-0.1,1.5,2.1,2.3
	l-1.4,1c0,0,2,1.6,5,0.3c0,0,1.6-1.2,2.7-1c1,0.2,4.4,0.3,4.4,0.3s3.6,0.8,4.9-0.9s4.8-6.6,4.8-6.6s1.3-1.5,3.2-1.6
	c0,0,0.8-0.1,1.2-0.6c0,0,2.2-1,3.8-0.6c1.6,0.4,2.5,0.2,2.5,0.2s2.9-0.2,3.1,1.8c0,0,0.1,0.4,0.6,0.4l0.9,0.4l0.4-0.9
	c0,0-0.2-1.6,1.3-0.9l1.9,1.1c0,0,1.6,0.7,3.2,0.2l8.5-1.6c0,0,1.4-0.3,2.3,0.6s2.9,1.5,2.9,1.5s2.3,0.9,5-0.4l1.1-0.2
	c0,0,3.6-0.5,5.8,2.5s2.5,2.5,2.7,5.1l-0.1,0.1l-0.1,0.1h3.6c0,0,1.6,0.3,1.6-1.3s0.1-2.1,0.1-2.1l0.9-1.5c0,0,0.7-0.7-0.1-2.3
	l2.9,1.2c0,0,2.3,1.2,3.2-1s2.1-4.6,2.1-4.6s3.8-3.5,1.9-6.5c0,0,0-0.5-4-3.5l-1.8-1.5c0,0-1.5-0.9-1.9-0.9s-2.1-1.2-2.3-1.7
	s-4.2-4-4.2-4s-2.3-2.4-4.4-2.8l-4.2-1.2c0,0-2-0.6-3.2,0.4l-0.8,0.4c0,0-1.1,0.5-2.4-0.1c0,0-1.1-0.6-1.2-0.8
	c-0.2-0.2-0.5-0.3-0.5-0.3s-0.4-0.1-0.6,0.2c0,0-0.1,0.1-0.3,0.4c-0.2,0.3-0.8,0.5-1.6,0.3l-2.3-0.4l-1.2-0.3c0,0-1.5-0.6-2.1-1.1
	c0,0-0.1-0.1-0.4-0.1l-3.6-1.9c0,0-0.9-0.4-1.6,0l1.2,0.9l-0.5,0.1c0,0-0.2,0-0.5,0s-4.8,0-4.8,0s-1.7,0.1-1.5-1.8
	c0,0,0.5-1.6,0.3-2.9c-0.2-1.2,1.4-0.7,1.4-0.7l2.8,0.5l0.6,0.1c0,0,1.2,0.4,1.6,0.5s1.8,0.2,1.8,0.2s1.2,0.2,2.1,0s3.3,0.3,3.3,0.3
	s1.7,0.5,2.2-0.5s2.3-3.5,2.3-3.5l0.6-1c0,0-0.7-0.4-2,0.5c0,0-1.1,0.6-1.8-0.5c0,0,0.9-1.3,0.8-1.6c0,0,0-0.5-0.3-0.8
	s-3.5,1.5-3.5,1.5s-0.4,0.3-0.6,1c-0.2,0.6-2-0.3-2-0.3s-2.3-1.2-5.6-1.2c0,0-0.8-0.1-1.3,0.6c0,0-1,0.6-2.6,0.7l-0.6,0.1
	c0,0-3.4,0.9-5-0.7l-0.8-0.8c0,0-0.6-0.8-1-1.2c-0.5-0.4-2.1-3.1-2.2-3.9c0,0-0.3-1.7-0.4-2.3c0,0-0.1-0.3-0.3-0.4
	c-0.2-0.1-0.7-1-0.6-2.2c0,0,0.4-1.8-0.4-2.7s-3.5-3.1-7.1-0.3l-0.8,0.6c0,0-3.1,0.6-5.4-0.4s-5-3.2-6-5.4c-1-2.2-4.3-2-4.3-2
	s-0.8,1.4-2,1.2c0,0-4.3-0.6-4.6-0.9s-3.7-1.8-3.7-1.8s-2.1-1.2-2.6-2.3c0,0-0.1-0.7-1.8-0.8l-5.3-1c0,0-0.9-0.2-1.7,0.6
	s-1.4,1.1-1.4,1.1s-1.1,1-2.3,1.1c0,0-1.1,0-1.5-0.2s-1.6,0.4-1.6,0.4s-1,1.4-2.4,0.8l-0.4-0.1c0,0-0.3-0.3-0.7-0.2l-3.6-0.9l-2-0.6
	c0,0-3-1.4-5.8-0.4l-2.8,0.8c0,0-0.6,0.2-0.9,0.5l-4.3,3.7c0,0,1.6,0.4,1.6,1.7c0,1.3-0.1,1.5-0.1,1.5l-1,0.1v2.4c0,0,0,2.1,0.9,3.5
	L237.2,397.6z"/>
<path class="st0" d="M-224,244.9"/>
<g>
	<g>
		<path d="M259.2,418.7v15.8h-3.6v-9.3l0.2-2.7l-0.6,3l-2.7,7.7H249l-2.7-7.7l-0.6-3l0.2,2.7v9.3h-3.6v-15.8h5l3.2,10.6l0.2,1.3
			l0.2-1.3l3.2-10.6H259.2z"/>
		<path d="M267.2,418.7h3.6l6.3,15.8h-3.8l-1.2-3.2H266l-1.2,3.2h-3.8L267.2,418.7z M267.2,428.2h3.7L269,423h0L267.2,428.2z"/>
		<path d="M281.2,421.8h-3.8v-3.1h11.1v3.1h-3.8v12.7h-3.6V421.8z"/>
		<path d="M290,426.6c0-1.2,0.2-2.2,0.6-3.2s1-1.9,1.7-2.6c0.7-0.7,1.6-1.3,2.6-1.7c1-0.4,2.1-0.6,3.2-0.6c1.2,0,2.2,0.2,3.2,0.6
			s1.8,1,2.6,1.7c0.7,0.7,1.3,1.6,1.7,2.6c0.4,1,0.6,2.1,0.6,3.2c0,1.2-0.2,2.2-0.6,3.2s-1,1.9-1.7,2.6c-0.7,0.7-1.6,1.3-2.6,1.7
			s-2.1,0.6-3.3,0.6c-1.2,0-2.3-0.2-3.3-0.6s-1.9-1-2.6-1.7c-0.7-0.7-1.3-1.6-1.7-2.6C290.2,428.8,290,427.7,290,426.6z
			 M293.8,426.6c0,0.9,0.2,1.7,0.6,2.5c0.4,0.7,0.9,1.3,1.5,1.7c0.7,0.4,1.4,0.6,2.3,0.6s1.6-0.2,2.3-0.6c0.7-0.4,1.2-1,1.5-1.7
			c0.4-0.7,0.6-1.5,0.6-2.5c0-0.9-0.2-1.7-0.6-2.4c-0.4-0.7-0.9-1.3-1.5-1.7c-0.7-0.4-1.4-0.7-2.3-0.7s-1.6,0.2-2.3,0.7
			c-0.7,0.4-1.2,1-1.5,1.7C293.9,424.9,293.8,425.7,293.8,426.6z"/>
		<path d="M308.4,418.7h4.8c1.7,0,3.1,0.3,4.2,1c1.1,0.7,1.9,1.6,2.5,2.8c0.6,1.2,0.8,2.6,0.8,4.1c0,1.5-0.3,2.9-0.8,4.1
			s-1.4,2.1-2.5,2.8c-1.1,0.7-2.5,1-4.2,1h-4.8V418.7z M311.9,421.9v9.5h0.9c0.9,0,1.7-0.2,2.2-0.6c0.6-0.4,1-1,1.3-1.7
			c0.3-0.7,0.4-1.5,0.4-2.4c0-0.9-0.1-1.7-0.4-2.4s-0.7-1.3-1.3-1.7c-0.6-0.4-1.4-0.6-2.3-0.6H311.9z"/>
		<path d="M322.2,426.6c0-1.2,0.2-2.2,0.6-3.2s1-1.9,1.7-2.6c0.7-0.7,1.6-1.3,2.6-1.7c1-0.4,2.1-0.6,3.2-0.6c1.2,0,2.2,0.2,3.2,0.6
			c1,0.4,1.8,1,2.6,1.7c0.7,0.7,1.3,1.6,1.7,2.6s0.6,2.1,0.6,3.2c0,1.2-0.2,2.2-0.6,3.2c-0.4,1-1,1.9-1.7,2.6
			c-0.7,0.7-1.6,1.3-2.6,1.7c-1,0.4-2.1,0.6-3.3,0.6c-1.2,0-2.3-0.2-3.3-0.6s-1.9-1-2.6-1.7c-0.7-0.7-1.3-1.6-1.7-2.6
			C322.4,428.8,322.2,427.7,322.2,426.6z M326,426.6c0,0.9,0.2,1.7,0.6,2.5c0.4,0.7,0.9,1.3,1.5,1.7c0.7,0.4,1.4,0.6,2.3,0.6
			s1.6-0.2,2.3-0.6c0.7-0.4,1.2-1,1.5-1.7c0.4-0.7,0.6-1.5,0.6-2.5c0-0.9-0.2-1.7-0.6-2.4c-0.4-0.7-0.9-1.3-1.5-1.7
			c-0.7-0.4-1.4-0.7-2.3-0.7s-1.6,0.2-2.3,0.7c-0.7,0.4-1.2,1-1.5,1.7C326.2,424.9,326,425.7,326,426.6z"/>
	</g>
</g>
</svg>
